<svg xmlns="http://www.w3.org/2000/svg" width="128" height="128" viewBox="0 0 128 128">
  <path fill="#0C0C0C" fill-opacity=".8" fill-rule="evenodd" d="M30.0588745,18.745166 L38.0102584,26.696751 C39.4758854,25.0426337 41.6161827,24 44,24 L84,24 C88.418278,24 92,27.581722 92,32 L91.9990203,80.6860203 L109.254834,97.9411255 C112.379028,101.06532 112.379028,106.13064 109.254834,109.254834 C106.13064,112.379028 101.06532,112.379028 97.9411255,109.254834 L89.9897416,101.303249 C88.5241146,102.957366 86.3838173,104 84,104 L44,104 C39.581722,104 36,100.418278 36,96 L35.9990203,47.3120203 L18.745166,30.0588745 C15.6209717,26.9346802 15.6209717,21.8693603 18.745166,18.745166 C21.8693603,15.6209717 26.9346802,15.6209717 30.0588745,18.745166 Z M43.9990203,55.3120203 L44,93 C44,94.5976809 45.24892,95.9036609 46.8237272,95.9949073 L47,96 L81,96 C82.0036887,96 82.8922561,95.5071071 83.4368558,94.7501676 L43.9990203,55.3120203 Z M81,32 L47,32 C45.9963113,32 45.1077439,32.4928929 44.5631442,33.2498324 L83.9990203,72.6860203 L84,35 C84,33.3431458 82.6568542,32 81,32 Z"/>
</svg>
