<svg xmlns="http://www.w3.org/2000/svg" width="128" height="128" viewBox="0 0 128 128">
  <g fill="none" fill-opacity=".8" fill-rule="evenodd">
    <path fill="#0C0C0C" d="M76,4 C81.2249052,4 85.6698824,7.33926875 87.3172055,12.0000801 L92,12 C100.836556,12 108,19.163444 108,28 L108,108 C108,116.836556 100.836556,124 92,124 L36,124 C27.163444,124 20,116.836556 20,108 L20,28 C20,19.163444 27.163444,12 36,12 L40.6827945,12.0000801 C42.3301176,7.33926875 46.7750948,4 52,4 L76,4 Z M87.0808157,28.6147486 L86.9711737,28.8688066 C85.1038922,33.0701938 80.8940926,36 76,36 L52,36 C47.0078093,36 42.7276187,32.9515655 40.9193786,28.6146471 C38.1026351,29.7910604 36.1022984,32.5316286 36.0038068,35.7508207 L36,36 L36,100 C36,104.334914 39.4478378,107.864543 43.7508207,107.996193 L44,108 L84,108 C88.3349143,108 91.8645429,104.552162 91.9961932,100.249179 L92,100 L92,36 C92,32.6735554 89.9697646,29.8212976 87.0808157,28.6147486 Z M56,12 C51.581722,12 48,15.581722 48,20 C48,24.3349143 51.4478378,27.8645429 55.7508207,27.9961932 L56,28 L72,28 C76.418278,28 80,24.418278 80,20 C80,15.6650857 76.5521622,12.1354571 72.2491793,12.0038068 L72,12 L56,12 Z"/>
    <path fill="#0C0C0C" d="M64,40 C66.209139,40 68,41.790861 68,44 L68,64 L88,64 C90.209139,64 92,65.790861 92,68 C92,70.209139 90.209139,72 88,72 L68,72 L68,92 C68,94.209139 66.209139,96 64,96 C61.790861,96 60,94.209139 60,92 L60,72 L40,72 C37.790861,72 36,70.209139 36,68 C36,65.790861 37.790861,64 40,64 L60,64 L60,44 C60,41.790861 61.790861,40 64,40 Z" transform="rotate(45 64 68)"/>
  </g>
</svg>
